<svg xmlns="http://www.w3.org/2000/svg" xmlns:xlink="http://www.w3.org/1999/xlink" viewBox="0 0 1494 494" width="1494" height="494"><path d="M 335.000,118.250 C 353.044,117.140 353.000,116.750 371.000,115.250" stroke-width="4.287" stroke="#000000" fill="none" stroke-linecap="round"></path><path d="M 371.000,115.250 C 381.454,113.341 381.544,114.140 392.000,112.250" stroke-width="2.782" stroke="#000000" fill="none" stroke-linecap="round"></path><path d="M 392.000,112.250 C 410.486,110.527 410.454,110.341 429.000,109.250" stroke-width="2.045" stroke="#000000" fill="none" stroke-linecap="round"></path><path d="M 429.000,109.250 C 442.312,105.454 439.486,108.527 450.000,108.250" stroke-width="2.301" stroke="#000000" fill="none" stroke-linecap="round"></path><path d="M 450.000,108.250 C 452.061,113.007 453.312,109.454 451.000,117.250" stroke-width="3.617" stroke="#000000" fill="none" stroke-linecap="round"></path><path d="M 451.000,117.250 C 448.295,125.206 449.061,125.007 444.000,132.250" stroke-width="3.107" stroke="#000000" fill="none" stroke-linecap="round"></path><path d="M 444.000,132.250 C 436.592,146.695 435.795,145.706 426.000,158.250" stroke-width="2.210" stroke="#000000" fill="none" stroke-linecap="round"></path><path d="M 426.000,158.250 C 413.914,170.560 414.592,170.695 400.000,180.250" stroke-width="1.963" stroke="#000000" fill="none" stroke-linecap="round"></path><path d="M 400.000,180.250 C 384.903,188.586 385.914,190.060 370.000,197.250" stroke-width="1.833" stroke="#000000" fill="none" stroke-linecap="round"></path><path d="M 370.000,197.250 C 356.739,203.164 363.403,201.086 357.000,205.250" stroke-width="2.458" stroke="#000000" fill="none" stroke-linecap="round"></path><path d="M 357.000,205.250 C 364.000,205.250 357.239,207.164 371.000,205.250" stroke-width="3.555" stroke="#000000" fill="none" stroke-linecap="round"></path><path d="M 371.000,205.250 C 384.516,205.723 384.500,205.250 398.000,205.250" stroke-width="2.388" stroke="#000000" fill="none" stroke-linecap="round"></path><path d="M 398.000,205.250 C 413.033,203.250 413.016,204.723 428.000,203.250" stroke-width="2.127" stroke="#000000" fill="none" stroke-linecap="round"></path><path d="M 428.000,203.250 C 437.764,202.632 435.533,203.250 443.000,205.250" stroke-width="2.610" stroke="#000000" fill="none" stroke-linecap="round"></path><path d="M 443.000,205.250 C 443.502,208.286 444.764,206.132 442.000,210.250" stroke-width="3.777" stroke="#000000" fill="none" stroke-linecap="round"></path><path d="M 442.000,210.250 C 436.680,217.073 437.002,216.786 430.000,222.250" stroke-width="3.048" stroke="#000000" fill="none" stroke-linecap="round"></path><path d="M 430.000,222.250 C 416.610,232.780 416.680,232.573 402.000,241.250" stroke-width="2.125" stroke="#000000" fill="none" stroke-linecap="round"></path><path d="M 402.000,241.250 C 381.752,252.278 382.110,252.780 361.000,262.250" stroke-width="1.603" stroke="#000000" fill="none" stroke-linecap="round"></path><path d="M 361.000,262.250 C 343.053,270.372 343.252,270.778 325.000,278.250" stroke-width="1.667" stroke="#000000" fill="none" stroke-linecap="round"></path><path d="M 325.000,278.250 C 311.212,285.133 315.553,282.372 306.000,286.250" stroke-width="2.196" stroke="#000000" fill="none" stroke-linecap="round"></path><path d="M 306.000,286.250 C 308.260,283.442 304.212,286.633 311.000,281.250" stroke-width="3.645" stroke="#000000" fill="none" stroke-linecap="round"></path><path d="M 489.000,111.250 C 505.380,116.693 505.500,116.250 522.000,121.250" stroke-width="4.255" stroke="#000000" fill="none" stroke-linecap="round"></path><path d="M 522.000,121.250 C 536.362,125.561 536.380,125.193 551.000,128.250" stroke-width="2.342" stroke="#000000" fill="none" stroke-linecap="round"></path><path d="M 551.000,128.250 C 561.090,128.782 560.862,130.061 571.000,130.250" stroke-width="2.446" stroke="#000000" fill="none" stroke-linecap="round"></path><path d="M 571.000,130.250 C 578.000,129.654 574.590,130.782 578.000,132.250" stroke-width="3.642" stroke="#000000" fill="none" stroke-linecap="round"></path><path d="M 578.000,132.250 C 575.791,140.542 578.000,138.154 571.000,147.250" stroke-width="3.714" stroke="#000000" fill="none" stroke-linecap="round"></path><path d="M 571.000,147.250 C 547.671,173.577 550.791,175.542 528.000,202.250" stroke-width="2.170" stroke="#000000" fill="none" stroke-linecap="round"></path><path d="M 528.000,202.250 C 519.563,217.542 518.171,216.577 512.000,233.250" stroke-width="1.873" stroke="#000000" fill="none" stroke-linecap="round"></path><path d="M 512.000,233.250 C 506.939,244.725 506.563,244.542 502.000,256.250" stroke-width="2.136" stroke="#000000" fill="none" stroke-linecap="round"></path><path d="M 488.000,192.250 C 499.002,192.422 499.000,192.250 510.000,192.250" stroke-width="4.818" stroke="#000000" fill="none" stroke-linecap="round"></path><path d="M 510.000,192.250 C 563.141,193.069 563.002,191.422 616.000,190.250" stroke-width="1.125" stroke="#000000" fill="none" stroke-linecap="round"></path><path d="M 616.000,190.250 C 638.005,187.284 638.141,189.069 660.000,184.250" stroke-width="1.354" stroke="#000000" fill="none" stroke-linecap="round"></path><circle r="1.5" cx="704" cy="211.25" fill="#000000"></circle><path d="M 793.000,119.250 C 798.394,121.580 798.500,121.250 804.000,123.250" stroke-width="5.136" stroke="#000000" fill="none" stroke-linecap="round"></path><path d="M 804.000,123.250 C 821.896,128.660 821.894,128.580 840.000,133.250" stroke-width="2.112" stroke="#000000" fill="none" stroke-linecap="round"></path><path d="M 840.000,133.250 C 857.723,136.507 857.396,137.660 875.000,141.250" stroke-width="1.832" stroke="#000000" fill="none" stroke-linecap="round"></path><path d="M 875.000,141.250 C 886.965,142.284 883.223,143.507 891.000,147.250" stroke-width="2.461" stroke="#000000" fill="none" stroke-linecap="round"></path><path d="M 891.000,147.250 C 890.735,152.952 893.465,150.284 888.000,157.250" stroke-width="3.485" stroke="#000000" fill="none" stroke-linecap="round"></path><path d="M 888.000,157.250 C 883.038,163.816 883.735,163.952 877.000,169.250" stroke-width="3.033" stroke="#000000" fill="none" stroke-linecap="round"></path><path d="M 877.000,169.250 C 862.670,181.462 863.038,181.816 848.000,193.250" stroke-width="2.004" stroke="#000000" fill="none" stroke-linecap="round"></path><path d="M 848.000,193.250 C 833.962,203.140 834.670,203.962 821.000,214.250" stroke-width="1.851" stroke="#000000" fill="none" stroke-linecap="round"></path><path d="M 821.000,214.250 C 813.297,221.569 812.962,221.140 806.000,229.250" stroke-width="2.264" stroke="#000000" fill="none" stroke-linecap="round"></path><path d="M 806.000,229.250 C 800.390,232.640 803.797,231.569 802.000,234.250" stroke-width="3.291" stroke="#000000" fill="none" stroke-linecap="round"></path><path d="M 802.000,234.250 C 809.609,239.618 806.390,238.640 818.000,241.250" stroke-width="4.107" stroke="#000000" fill="none" stroke-linecap="round"></path><path d="M 818.000,241.250 C 828.084,242.100 827.609,243.118 838.000,241.250" stroke-width="2.908" stroke="#000000" fill="none" stroke-linecap="round"></path><path d="M 838.000,241.250 C 845.827,240.641 845.584,240.600 853.000,238.250" stroke-width="2.945" stroke="#000000" fill="none" stroke-linecap="round"></path><path d="M 1005.000,125.250 C 1000.360,125.797 1000.500,126.250 996.000,127.250" stroke-width="5.162" stroke="#000000" fill="none" stroke-linecap="round"></path><path d="M 996.000,127.250 C 988.291,129.796 988.360,129.797 981.000,133.250" stroke-width="3.324" stroke="#000000" fill="none" stroke-linecap="round"></path><path d="M 981.000,133.250 C 969.286,138.871 969.291,138.796 958.000,145.250" stroke-width="2.472" stroke="#000000" fill="none" stroke-linecap="round"></path><path d="M 958.000,145.250 C 946.415,152.116 946.286,151.871 935.000,159.250" stroke-width="2.258" stroke="#000000" fill="none" stroke-linecap="round"></path><path d="M 935.000,159.250 C 923.281,162.885 930.415,162.116 926.000,165.250" stroke-width="2.972" stroke="#000000" fill="none" stroke-linecap="round"></path><path d="M 926.000,165.250 C 941.681,173.130 934.781,172.885 958.000,179.250" stroke-width="3.219" stroke="#000000" fill="none" stroke-linecap="round"></path><path d="M 958.000,179.250 C 970.268,182.039 969.681,183.630 982.000,186.250" stroke-width="2.496" stroke="#000000" fill="none" stroke-linecap="round"></path><path d="M 982.000,186.250 C 991.245,188.101 989.768,189.039 997.000,193.250" stroke-width="2.734" stroke="#000000" fill="none" stroke-linecap="round"></path><path d="M 997.000,193.250 C 1001.267,198.452 1000.745,196.601 1001.000,203.250" stroke-width="3.639" stroke="#000000" fill="none" stroke-linecap="round"></path><path d="M 1001.000,203.250 C 999.433,208.144 1000.767,207.452 996.000,211.250" stroke-width="3.624" stroke="#000000" fill="none" stroke-linecap="round"></path><path d="M 996.000,211.250 C 988.826,218.494 988.933,217.644 980.000,222.250" stroke-width="2.791" stroke="#000000" fill="none" stroke-linecap="round"></path><path d="M 980.000,222.250 C 964.658,227.404 965.326,228.494 949.000,231.250" stroke-width="2.136" stroke="#000000" fill="none" stroke-linecap="round"></path><path d="M 949.000,231.250 C 935.940,233.477 936.158,234.404 923.000,236.250" stroke-width="2.124" stroke="#000000" fill="none" stroke-linecap="round"></path><path d="M 220.000,423.250 C 220.432,417.743 220.500,417.750 221.000,412.250" stroke-width="5.124" stroke="#000000" fill="none" stroke-linecap="round"></path><path d="M 221.000,412.250 C 222.331,403.278 221.932,403.243 223.000,394.250" stroke-width="3.169" stroke="#000000" fill="none" stroke-linecap="round"></path><path d="M 223.000,394.250 C 224.143,376.254 224.331,376.278 225.000,358.250" stroke-width="2.816" stroke="#000000" fill="none" stroke-linecap="round"></path><path d="M 225.000,358.250 C 224.801,351.652 225.143,355.254 225.000,352.250" stroke-width="3.638" stroke="#000000" fill="none" stroke-linecap="round"></path><path d="M 225.000,352.250 C 225.402,356.762 225.301,353.152 226.000,361.250" stroke-width="4.437" stroke="#000000" fill="none" stroke-linecap="round"></path><path d="M 226.000,361.250 C 227.216,371.799 227.402,371.762 229.000,382.250" stroke-width="2.801" stroke="#000000" fill="none" stroke-linecap="round"></path><path d="M 229.000,382.250 C 230.010,392.614 230.716,392.299 233.000,402.250" stroke-width="2.626" stroke="#000000" fill="none" stroke-linecap="round"></path><path d="M 233.000,402.250 C 234.873,407.270 234.510,407.114 238.000,411.250" stroke-width="3.184" stroke="#000000" fill="none" stroke-linecap="round"></path><path d="M 238.000,411.250 C 240.880,413.910 240.373,414.270 244.000,416.250" stroke-width="3.579" stroke="#000000" fill="none" stroke-linecap="round"></path><path d="M 244.000,416.250 C 247.360,420.730 246.880,418.410 250.000,420.250" stroke-width="3.831" stroke="#000000" fill="none" stroke-linecap="round"></path><path d="M 250.000,420.250 C 253.660,417.857 252.860,419.730 255.000,414.250" stroke-width="4.500" stroke="#000000" fill="none" stroke-linecap="round"></path><path d="M 255.000,414.250 C 258.900,399.722 260.160,400.357 263.000,385.250" stroke-width="2.431" stroke="#000000" fill="none" stroke-linecap="round"></path><path d="M 263.000,385.250 C 267.754,369.819 267.400,369.722 272.000,354.250" stroke-width="2.004" stroke="#000000" fill="none" stroke-linecap="round"></path><path d="M 272.000,354.250 C 275.360,342.317 275.254,342.319 278.000,330.250" stroke-width="2.197" stroke="#000000" fill="none" stroke-linecap="round"></path><path d="M 326.000,362.250 C 323.805,365.133 324.000,365.250 322.000,368.250" stroke-width="5.220" stroke="#000000" fill="none" stroke-linecap="round"></path><path d="M 322.000,368.250 C 318.104,374.565 318.305,374.633 315.000,381.250" stroke-width="3.448" stroke="#000000" fill="none" stroke-linecap="round"></path><path d="M 315.000,381.250 C 311.943,388.728 311.604,388.565 309.000,396.250" stroke-width="3.033" stroke="#000000" fill="none" stroke-linecap="round"></path><path d="M 309.000,396.250 C 303.434,402.224 307.443,400.228 306.000,404.250" stroke-width="3.498" stroke="#000000" fill="none" stroke-linecap="round"></path><path d="M 306.000,404.250 C 316.741,409.417 312.934,409.724 328.000,411.250" stroke-width="3.767" stroke="#000000" fill="none" stroke-linecap="round"></path><path d="M 328.000,411.250 C 338.542,411.848 338.241,412.917 349.000,411.250" stroke-width="2.722" stroke="#000000" fill="none" stroke-linecap="round"></path><path d="M 349.000,411.250 C 356.217,410.946 356.042,410.848 363.000,409.250" stroke-width="2.957" stroke="#000000" fill="none" stroke-linecap="round"></path><path d="M 307.000,399.250 C 310.000,399.250 310.000,399.250 313.000,399.250" stroke-width="5.330" stroke="#000000" fill="none" stroke-linecap="round"></path><path d="M 313.000,399.250 C 320.006,399.469 320.000,399.250 327.000,399.250" stroke-width="3.531" stroke="#000000" fill="none" stroke-linecap="round"></path><path d="M 327.000,399.250 C 336.050,399.176 336.006,398.969 345.000,398.250" stroke-width="2.929" stroke="#000000" fill="none" stroke-linecap="round"></path><path d="M 377.000,362.250 C 376.805,366.757 377.000,366.750 377.000,371.250" stroke-width="4.906" stroke="#000000" fill="none" stroke-linecap="round"></path><path d="M 377.000,371.250 C 376.937,378.340 377.305,378.257 378.000,385.250" stroke-width="3.468" stroke="#000000" fill="none" stroke-linecap="round"></path><path d="M 378.000,385.250 C 378.969,391.447 378.937,391.340 381.000,397.250" stroke-width="3.256" stroke="#000000" fill="none" stroke-linecap="round"></path><path d="M 381.000,397.250 C 382.276,401.921 382.469,401.447 385.000,405.250" stroke-width="3.545" stroke="#000000" fill="none" stroke-linecap="round"></path><path d="M 385.000,405.250 C 387.442,408.250 386.776,407.421 390.000,408.250" stroke-width="4.328" stroke="#000000" fill="none" stroke-linecap="round"></path><path d="M 390.000,408.250 C 394.081,407.745 392.942,408.250 396.000,405.250" stroke-width="4.581" stroke="#000000" fill="none" stroke-linecap="round"></path><path d="M 396.000,405.250 C 398.299,400.352 399.081,401.245 400.000,395.250" stroke-width="3.721" stroke="#000000" fill="none" stroke-linecap="round"></path><path d="M 400.000,395.250 C 402.181,388.297 402.299,388.352 404.000,381.250" stroke-width="3.141" stroke="#000000" fill="none" stroke-linecap="round"></path><path d="M 404.000,381.250 C 406.413,372.819 406.181,372.797 408.000,364.250" stroke-width="2.875" stroke="#000000" fill="none" stroke-linecap="round"></path><path d="M 408.000,364.250 C 409.135,351.949 408.913,359.319 409.000,354.250" stroke-width="3.258" stroke="#000000" fill="none" stroke-linecap="round"></path><path d="M 409.000,354.250 C 406.387,367.769 408.635,360.449 407.000,381.250" stroke-width="3.748" stroke="#000000" fill="none" stroke-linecap="round"></path><path d="M 407.000,381.250 C 406.234,418.569 408.387,411.769 413.000,442.250" stroke-width="1.531" stroke="#000000" fill="none" stroke-linecap="round"></path><path d="M 413.000,442.250 C 419.557,441.411 414.234,446.569 423.000,437.250" stroke-width="2.758" stroke="#000000" fill="none" stroke-linecap="round"></path><path d="M 423.000,437.250 C 430.370,425.450 431.557,426.911 437.000,413.250" stroke-width="2.290" stroke="#000000" fill="none" stroke-linecap="round"></path><path d="M 437.000,413.250 C 442.935,402.446 442.870,402.450 448.000,391.250" stroke-width="2.296" stroke="#000000" fill="none" stroke-linecap="round"></path><path d="M 448.000,391.250 C 452.932,381.478 452.435,381.446 456.000,371.250" stroke-width="2.366" stroke="#000000" fill="none" stroke-linecap="round"></path><circle r="1.5" cx="511" cy="366.25" fill="#000000"></circle><path d="M 504.000,367.250 C 506.221,376.096 507.000,375.750 510.000,384.250" stroke-width="4.559" stroke="#000000" fill="none" stroke-linecap="round"></path><path d="M 510.000,384.250 C 516.231,396.404 515.721,396.596 523.000,408.250" stroke-width="2.484" stroke="#000000" fill="none" stroke-linecap="round"></path><path d="M 523.000,408.250 C 529.933,421.149 530.231,420.904 538.000,433.250" stroke-width="2.180" stroke="#000000" fill="none" stroke-linecap="round"></path><path d="M 538.000,433.250 C 542.351,438.885 541.933,439.149 547.000,444.250" stroke-width="2.684" stroke="#000000" fill="none" stroke-linecap="round"></path><path d="M 488.000,357.250 C 491.020,356.942 491.000,357.250 494.000,357.250" stroke-width="5.114" stroke="#000000" fill="none" stroke-linecap="round"></path><path d="M 494.000,357.250 C 505.443,359.631 505.520,358.442 517.000,360.250" stroke-width="2.751" stroke="#000000" fill="none" stroke-linecap="round"></path><path d="M 517.000,360.250 C 533.500,360.250 533.443,361.131 550.000,360.250" stroke-width="2.105" stroke="#000000" fill="none" stroke-linecap="round"></path><path d="M 550.000,360.250 C 566.586,357.164 563.500,360.250 577.000,360.250" stroke-width="2.097" stroke="#000000" fill="none" stroke-linecap="round"></path><path d="M 577.000,360.250 C 579.087,365.293 580.086,361.164 577.000,368.250" stroke-width="3.484" stroke="#000000" fill="none" stroke-linecap="round"></path><path d="M 577.000,368.250 C 571.292,373.191 573.087,373.793 565.000,377.250" stroke-width="3.182" stroke="#000000" fill="none" stroke-linecap="round"></path><path d="M 565.000,377.250 C 554.472,381.531 555.792,383.191 546.000,388.250" stroke-width="2.635" stroke="#000000" fill="none" stroke-linecap="round"></path><path d="M 546.000,388.250 C 541.345,394.590 539.972,393.031 536.000,400.250" stroke-width="2.836" stroke="#000000" fill="none" stroke-linecap="round"></path><path d="M 623.000,341.250 C 622.979,348.807 622.500,348.750 622.000,356.250" stroke-width="4.820" stroke="#000000" fill="none" stroke-linecap="round"></path><path d="M 622.000,356.250 C 619.508,367.686 620.479,367.807 618.000,379.250" stroke-width="2.715" stroke="#000000" fill="none" stroke-linecap="round"></path><path d="M 618.000,379.250 C 616.576,390.732 616.508,390.686 616.000,402.250" stroke-width="2.413" stroke="#000000" fill="none" stroke-linecap="round"></path><path d="M 597.000,342.250 C 608.541,335.489 609.000,337.250 621.000,332.250" stroke-width="3.409" stroke="#000000" fill="none" stroke-linecap="round"></path><path d="M 621.000,332.250 C 633.955,329.975 633.541,328.989 647.000,329.250" stroke-width="2.404" stroke="#000000" fill="none" stroke-linecap="round"></path><path d="M 647.000,329.250 C 661.111,328.456 660.955,328.475 675.000,329.250" stroke-width="2.202" stroke="#000000" fill="none" stroke-linecap="round"></path><path d="M 675.000,329.250 C 681.246,329.240 678.611,329.456 682.000,331.250" stroke-width="3.185" stroke="#000000" fill="none" stroke-linecap="round"></path><path d="M 682.000,331.250 C 680.317,334.499 682.746,333.240 678.000,337.250" stroke-width="4.094" stroke="#000000" fill="none" stroke-linecap="round"></path><path d="M 678.000,337.250 C 672.971,344.969 672.317,343.999 666.000,350.250" stroke-width="2.982" stroke="#000000" fill="none" stroke-linecap="round"></path><path d="M 666.000,350.250 C 654.987,355.502 656.471,357.469 645.000,362.250" stroke-width="2.487" stroke="#000000" fill="none" stroke-linecap="round"></path><path d="M 645.000,362.250 C 636.136,368.114 636.487,368.002 629.000,375.250" stroke-width="2.467" stroke="#000000" fill="none" stroke-linecap="round"></path><path d="M 629.000,375.250 C 625.062,379.070 627.136,377.114 627.000,380.250" stroke-width="3.754" stroke="#000000" fill="none" stroke-linecap="round"></path><path d="M 627.000,380.250 C 639.073,386.624 636.562,386.070 652.000,389.250" stroke-width="2.433" stroke="#000000" fill="none" stroke-linecap="round"></path><path d="M 652.000,389.250 C 671.470,391.830 671.073,393.124 691.000,393.250" stroke-width="1.870" stroke="#000000" fill="none" stroke-linecap="round"></path><path d="M 691.000,393.250 C 702.969,392.151 698.970,393.830 707.000,393.250" stroke-width="2.443" stroke="#000000" fill="none" stroke-linecap="round"></path><path d="M 707.000,393.250 C 704.710,395.218 708.469,393.651 702.000,396.250" stroke-width="3.762" stroke="#000000" fill="none" stroke-linecap="round"></path><path d="M 702.000,396.250 C 693.883,398.412 694.210,399.218 686.000,401.250" stroke-width="3.059" stroke="#000000" fill="none" stroke-linecap="round"></path><path d="M 686.000,401.250 C 668.981,407.700 668.883,407.412 652.000,414.250" stroke-width="2.045" stroke="#000000" fill="none" stroke-linecap="round"></path><path d="M 652.000,414.250 C 633.310,419.904 633.981,421.200 616.000,428.250" stroke-width="1.750" stroke="#000000" fill="none" stroke-linecap="round"></path><path d="M 741.000,305.250 C 740.985,319.288 741.500,319.250 742.000,333.250" stroke-width="4.590" stroke="#000000" fill="none" stroke-linecap="round"></path><path d="M 742.000,333.250 C 743.563,346.743 742.985,346.788 745.000,360.250" stroke-width="2.493" stroke="#000000" fill="none" stroke-linecap="round"></path><path d="M 745.000,360.250 C 746.166,370.237 746.063,370.243 747.000,380.250" stroke-width="2.606" stroke="#000000" fill="none" stroke-linecap="round"></path><circle r="1.5" cx="757" cy="434.25" fill="#000000"></circle><path d="M 783.000,314.250 C 782.167,318.732 782.500,318.750 782.000,323.250" stroke-width="5.062" stroke="#000000" fill="none" stroke-linecap="round"></path><path d="M 782.000,323.250 C 781.791,332.254 781.667,332.232 782.000,341.250" stroke-width="3.170" stroke="#000000" fill="none" stroke-linecap="round"></path><path d="M 782.000,341.250 C 781.320,353.927 782.291,353.754 783.000,366.250" stroke-width="2.551" stroke="#000000" fill="none" stroke-linecap="round"></path><path d="M 783.000,366.250 C 785.212,375.842 784.320,375.927 788.000,385.250" stroke-width="2.591" stroke="#000000" fill="none" stroke-linecap="round"></path><circle r="1.5" cx="804" cy="424.25" fill="#000000"></circle><path d="M 831.000,335.250 C 827.573,329.531 829.000,333.250 827.000,331.250" stroke-width="4.828" stroke="#000000" fill="none" stroke-linecap="round"></path><path d="M 827.000,331.250 C 825.613,340.771 825.073,337.031 826.000,350.250" stroke-width="4.495" stroke="#000000" fill="none" stroke-linecap="round"></path><path d="M 826.000,350.250 C 827.272,365.277 826.613,365.271 829.000,380.250" stroke-width="2.428" stroke="#000000" fill="none" stroke-linecap="round"></path><path d="M 829.000,380.250 C 830.176,391.307 830.272,391.277 832.000,402.250" stroke-width="2.377" stroke="#000000" fill="none" stroke-linecap="round"></path><circle r="1.5" cx="845" cy="442.25" fill="#000000"></circle><path d="M 1059.000,327.250 C 1054.717,327.534 1055.000,328.250 1051.000,329.250" stroke-width="3.983" stroke="#000000" fill="none" stroke-linecap="round"></path><path d="M 1051.000,329.250 C 1042.172,334.581 1041.717,333.534 1033.000,339.250" stroke-width="2.853" stroke="#000000" fill="none" stroke-linecap="round"></path><path d="M 1033.000,339.250 C 1014.226,347.729 1014.672,348.581 996.000,357.250" stroke-width="1.884" stroke="#000000" fill="none" stroke-linecap="round"></path><path d="M 996.000,357.250 C 981.016,365.779 980.726,365.229 966.000,374.250" stroke-width="1.812" stroke="#000000" fill="none" stroke-linecap="round"></path><path d="M 966.000,374.250 C 955.977,377.204 961.516,376.779 957.000,379.250" stroke-width="2.737" stroke="#000000" fill="none" stroke-linecap="round"></path><path d="M 957.000,379.250 C 963.927,381.977 958.477,382.204 971.000,384.250" stroke-width="3.796" stroke="#000000" fill="none" stroke-linecap="round"></path><path d="M 971.000,384.250 C 977.977,386.335 977.927,386.477 985.000,388.250" stroke-width="3.225" stroke="#000000" fill="none" stroke-linecap="round"></path><path d="M 985.000,388.250 C 990.970,387.712 988.977,389.335 993.000,390.250" stroke-width="3.551" stroke="#000000" fill="none" stroke-linecap="round"></path><path d="M 993.000,390.250 C 992.758,394.260 994.970,392.712 993.000,398.250" stroke-width="4.370" stroke="#000000" fill="none" stroke-linecap="round"></path><path d="M 993.000,398.250 C 994.489,410.730 993.758,410.760 995.000,423.250" stroke-width="2.655" stroke="#000000" fill="none" stroke-linecap="round"></path><path d="M 995.000,423.250 C 995.333,435.264 995.489,435.230 995.000,447.250" stroke-width="2.421" stroke="#000000" fill="none" stroke-linecap="round"></path><path d="M 995.000,447.250 C 994.000,461.827 994.833,453.264 994.000,459.250" stroke-width="2.971" stroke="#000000" fill="none" stroke-linecap="round"></path><path d="M 994.000,459.250 C 994.119,444.230 994.000,452.827 995.000,429.250" stroke-width="3.894" stroke="#000000" fill="none" stroke-linecap="round"></path><path d="M 995.000,429.250 C 996.182,401.665 996.619,401.730 999.000,374.250" stroke-width="1.652" stroke="#000000" fill="none" stroke-linecap="round"></path><path d="M 999.000,374.250 C 1002.109,348.189 1001.682,348.165 1006.000,322.250" stroke-width="1.449" stroke="#000000" fill="none" stroke-linecap="round"></path><path d="M 1006.000,322.250 C 1009.400,298.090 1008.109,308.189 1011.000,294.250" stroke-width="1.853" stroke="#000000" fill="none" stroke-linecap="round"></path><path d="M 1011.000,294.250 C 1011.000,302.250 1011.900,292.090 1011.000,310.250" stroke-width="2.952" stroke="#000000" fill="none" stroke-linecap="round"></path><path d="M 1011.000,310.250 C 1011.000,330.250 1011.000,330.250 1011.000,350.250" stroke-width="1.927" stroke="#000000" fill="none" stroke-linecap="round"></path><path d="M 1011.000,350.250 C 1011.378,365.769 1011.000,365.750 1011.000,381.250" stroke-width="1.972" stroke="#000000" fill="none" stroke-linecap="round"></path><path d="M 1011.000,381.250 C 1010.295,390.366 1010.878,386.269 1010.000,391.250" stroke-width="2.856" stroke="#000000" fill="none" stroke-linecap="round"></path><path d="M 1010.000,391.250 C 1009.721,387.735 1009.795,391.866 1010.000,384.250" stroke-width="4.066" stroke="#000000" fill="none" stroke-linecap="round"></path><path d="M 1010.000,384.250 C 1010.478,375.164 1010.721,375.235 1012.000,366.250" stroke-width="2.949" stroke="#000000" fill="none" stroke-linecap="round"></path><path d="M 1012.000,366.250 C 1014.032,354.628 1013.978,354.664 1017.000,343.250" stroke-width="2.510" stroke="#000000" fill="none" stroke-linecap="round"></path><path d="M 1017.000,343.250 C 1020.699,323.882 1020.032,331.628 1024.000,320.250" stroke-width="2.320" stroke="#000000" fill="none" stroke-linecap="round"></path><path d="M 1024.000,320.250 C 1025.946,326.161 1025.699,318.382 1027.000,332.250" stroke-width="3.515" stroke="#000000" fill="none" stroke-linecap="round"></path><path d="M 1027.000,332.250 C 1030.218,352.220 1030.446,352.161 1033.000,372.250" stroke-width="1.907" stroke="#000000" fill="none" stroke-linecap="round"></path><path d="M 1033.000,372.250 C 1033.114,390.866 1035.218,388.220 1037.000,404.250" stroke-width="1.878" stroke="#000000" fill="none" stroke-linecap="round"></path><path d="M 1037.000,404.250 C 1040.697,405.204 1037.614,406.366 1042.000,403.250" stroke-width="3.371" stroke="#000000" fill="none" stroke-linecap="round"></path><path d="M 1042.000,403.250 C 1045.079,394.553 1046.697,396.204 1049.000,386.250" stroke-width="2.936" stroke="#000000" fill="none" stroke-linecap="round"></path><path d="M 1049.000,386.250 C 1053.323,376.333 1053.579,376.553 1059.000,367.250" stroke-width="2.606" stroke="#000000" fill="none" stroke-linecap="round"></path><path d="M 1059.000,367.250 C 1065.955,356.306 1065.823,356.333 1074.000,346.250" stroke-width="2.392" stroke="#000000" fill="none" stroke-linecap="round"></path><path d="M 1074.000,346.250 C 1086.761,331.532 1079.955,338.806 1087.000,332.250" stroke-width="2.618" stroke="#000000" fill="none" stroke-linecap="round"></path><path d="M 1087.000,332.250 C 1082.313,341.937 1087.261,333.032 1075.000,349.250" stroke-width="3.451" stroke="#000000" fill="none" stroke-linecap="round"></path><path d="M 1075.000,349.250 C 1056.459,366.308 1057.313,366.937 1037.000,382.250" stroke-width="1.725" stroke="#000000" fill="none" stroke-linecap="round"></path><path d="M 1037.000,382.250 C 1013.982,399.130 1014.959,400.308 992.000,417.250" stroke-width="1.397" stroke="#000000" fill="none" stroke-linecap="round"></path><path d="M 992.000,417.250 C 963.277,439.924 976.982,429.630 963.000,443.250" stroke-width="1.602" stroke="#000000" fill="none" stroke-linecap="round"></path><path d="M 963.000,443.250 C 976.947,436.142 962.777,445.924 991.000,429.250" stroke-width="2.577" stroke="#000000" fill="none" stroke-linecap="round"></path><path d="M 991.000,429.250 C 1028.945,410.636 1028.947,410.642 1067.000,392.250" stroke-width="1.125" stroke="#000000" fill="none" stroke-linecap="round"></path></svg>