<svg xmlns="http://www.w3.org/2000/svg" xmlns:xlink="http://www.w3.org/1999/xlink" viewBox="0 0 1494 494" width="1494" height="494"><path d="M 318.000,66.250 C 324.209,73.655 322.000,74.250 326.000,82.250" stroke-width="4.043" stroke="#000000" fill="none" stroke-linecap="round"></path><path d="M 326.000,82.250 C 327.157,98.242 329.209,97.655 328.000,114.250" stroke-width="2.232" stroke="#000000" fill="none" stroke-linecap="round"></path><path d="M 328.000,114.250 C 328.692,136.269 329.157,136.242 330.000,158.250" stroke-width="1.720" stroke="#000000" fill="none" stroke-linecap="round"></path><path d="M 330.000,158.250 C 331.413,178.257 331.192,178.269 333.000,198.250" stroke-width="1.688" stroke="#000000" fill="none" stroke-linecap="round"></path><path d="M 305.000,71.250 C 308.254,68.700 308.500,69.250 312.000,67.250" stroke-width="5.141" stroke="#000000" fill="none" stroke-linecap="round"></path><path d="M 312.000,67.250 C 323.913,62.969 323.754,62.700 336.000,59.250" stroke-width="2.635" stroke="#000000" fill="none" stroke-linecap="round"></path><path d="M 336.000,59.250 C 349.846,54.153 349.913,54.969 364.000,51.250" stroke-width="2.215" stroke="#000000" fill="none" stroke-linecap="round"></path><path d="M 364.000,51.250 C 372.552,48.802 369.346,50.153 375.000,51.250" stroke-width="2.938" stroke="#000000" fill="none" stroke-linecap="round"></path><path d="M 375.000,51.250 C 374.728,56.008 377.052,53.302 373.000,60.250" stroke-width="3.928" stroke="#000000" fill="none" stroke-linecap="round"></path><path d="M 373.000,60.250 C 369.842,70.217 369.228,69.508 364.000,78.250" stroke-width="2.798" stroke="#000000" fill="none" stroke-linecap="round"></path><path d="M 364.000,78.250 C 357.152,86.536 357.842,86.717 349.000,93.250" stroke-width="2.584" stroke="#000000" fill="none" stroke-linecap="round"></path><path d="M 349.000,93.250 C 338.694,98.893 340.152,100.536 330.000,106.250" stroke-width="2.445" stroke="#000000" fill="none" stroke-linecap="round"></path><path d="M 330.000,106.250 C 326.056,110.496 325.694,109.893 323.000,115.250" stroke-width="2.978" stroke="#000000" fill="none" stroke-linecap="round"></path><path d="M 354.000,114.250 C 356.000,119.228 355.000,119.250 356.000,124.250" stroke-width="4.672" stroke="#000000" fill="none" stroke-linecap="round"></path><path d="M 356.000,124.250 C 355.687,130.923 356.000,130.728 354.000,137.250" stroke-width="3.437" stroke="#000000" fill="none" stroke-linecap="round"></path><path d="M 354.000,137.250 C 351.032,145.761 351.687,145.923 348.000,154.250" stroke-width="2.910" stroke="#000000" fill="none" stroke-linecap="round"></path><path d="M 352.000,118.250 C 355.364,115.973 355.500,116.250 359.000,114.250" stroke-width="5.188" stroke="#000000" fill="none" stroke-linecap="round"></path><path d="M 359.000,114.250 C 365.040,111.841 364.864,111.473 371.000,109.250" stroke-width="3.604" stroke="#000000" fill="none" stroke-linecap="round"></path><path d="M 371.000,109.250 C 376.374,106.360 376.540,106.841 382.000,104.250" stroke-width="3.315" stroke="#000000" fill="none" stroke-linecap="round"></path><path d="M 382.000,104.250 C 387.000,102.134 384.374,103.360 387.000,103.250" stroke-width="3.964" stroke="#000000" fill="none" stroke-linecap="round"></path><path d="M 387.000,103.250 C 384.749,106.951 387.000,105.134 382.000,110.250" stroke-width="4.514" stroke="#000000" fill="none" stroke-linecap="round"></path><path d="M 382.000,110.250 C 377.251,115.999 377.249,115.951 372.000,121.250" stroke-width="3.336" stroke="#000000" fill="none" stroke-linecap="round"></path><path d="M 372.000,121.250 C 366.100,126.867 366.251,126.999 360.000,132.250" stroke-width="2.933" stroke="#000000" fill="none" stroke-linecap="round"></path><path d="M 360.000,132.250 C 354.040,134.330 357.600,134.367 355.000,136.250" stroke-width="3.655" stroke="#000000" fill="none" stroke-linecap="round"></path><path d="M 355.000,136.250 C 359.886,141.489 357.040,140.330 366.000,144.250" stroke-width="4.548" stroke="#000000" fill="none" stroke-linecap="round"></path><path d="M 366.000,144.250 C 375.807,148.165 375.386,148.489 386.000,150.250" stroke-width="2.834" stroke="#000000" fill="none" stroke-linecap="round"></path><path d="M 386.000,150.250 C 397.977,151.984 397.807,152.665 410.000,153.250" stroke-width="2.455" stroke="#000000" fill="none" stroke-linecap="round"></path><path d="M 410.000,153.250 C 422.110,153.305 416.977,153.984 424.000,154.250" stroke-width="2.810" stroke="#000000" fill="none" stroke-linecap="round"></path><path d="M 424.000,154.250 C 420.057,155.709 425.110,154.805 416.000,156.250" stroke-width="4.081" stroke="#000000" fill="none" stroke-linecap="round"></path><path d="M 416.000,156.250 C 412.500,156.250 412.557,156.709 409.000,156.250" stroke-width="4.013" stroke="#000000" fill="none" stroke-linecap="round"></path><path d="M 489.000,107.250 C 494.455,105.754 494.500,106.250 500.000,105.250" stroke-width="4.956" stroke="#000000" fill="none" stroke-linecap="round"></path><path d="M 500.000,105.250 C 506.425,103.616 505.455,104.754 511.000,105.250" stroke-width="3.767" stroke="#000000" fill="none" stroke-linecap="round"></path><path d="M 511.000,105.250 C 513.740,107.651 513.425,106.116 514.000,110.250" stroke-width="4.698" stroke="#000000" fill="none" stroke-linecap="round"></path><path d="M 514.000,110.250 C 513.585,113.136 514.240,112.651 512.000,115.250" stroke-width="4.794" stroke="#000000" fill="none" stroke-linecap="round"></path><path d="M 512.000,115.250 C 508.500,118.750 509.085,119.136 505.000,122.250" stroke-width="4.479" stroke="#000000" fill="none" stroke-linecap="round"></path><path d="M 505.000,122.250 C 501.624,125.884 501.500,125.750 498.000,129.250" stroke-width="4.372" stroke="#000000" fill="none" stroke-linecap="round"></path><path d="M 498.000,129.250 C 491.000,134.132 494.624,132.384 491.000,135.250" stroke-width="4.409" stroke="#000000" fill="none" stroke-linecap="round"></path><path d="M 491.000,135.250 C 494.459,134.067 491.000,136.132 498.000,133.250" stroke-width="5.101" stroke="#000000" fill="none" stroke-linecap="round"></path><path d="M 498.000,133.250 C 500.979,132.502 500.959,132.567 504.000,132.250" stroke-width="4.390" stroke="#000000" fill="none" stroke-linecap="round"></path><path d="M 504.000,132.250 C 509.026,130.790 506.979,132.002 510.000,132.250" stroke-width="4.821" stroke="#000000" fill="none" stroke-linecap="round"></path><path d="M 510.000,132.250 C 509.301,135.388 511.026,133.790 508.000,138.250" stroke-width="4.868" stroke="#000000" fill="none" stroke-linecap="round"></path><path d="M 508.000,138.250 C 506.668,140.867 506.801,140.888 505.000,143.250" stroke-width="4.372" stroke="#000000" fill="none" stroke-linecap="round"></path><path d="M 505.000,143.250 C 503.000,145.750 503.168,145.867 501.000,148.250" stroke-width="4.117" stroke="#000000" fill="none" stroke-linecap="round"></path><path d="M 501.000,148.250 C 499.138,150.874 499.000,150.750 497.000,153.250" stroke-width="4.095" stroke="#000000" fill="none" stroke-linecap="round"></path><path d="M 527.000,106.250 C 532.707,105.243 531.000,106.750 535.000,107.250" stroke-width="5.259" stroke="#000000" fill="none" stroke-linecap="round"></path><path d="M 535.000,107.250 C 535.349,110.281 536.707,108.743 535.000,113.250" stroke-width="4.899" stroke="#000000" fill="none" stroke-linecap="round"></path><path d="M 535.000,113.250 C 534.618,118.933 534.349,118.781 533.000,124.250" stroke-width="3.738" stroke="#000000" fill="none" stroke-linecap="round"></path><path d="M 533.000,124.250 C 530.591,130.290 531.118,130.433 528.000,136.250" stroke-width="3.270" stroke="#000000" fill="none" stroke-linecap="round"></path><path d="M 528.000,136.250 C 525.421,141.716 525.591,141.790 523.000,147.250" stroke-width="3.283" stroke="#000000" fill="none" stroke-linecap="round"></path><path d="M 514.000,142.250 C 514.136,138.907 515.000,139.750 516.000,137.250" stroke-width="5.264" stroke="#000000" fill="none" stroke-linecap="round"></path><path d="M 516.000,137.250 C 519.325,135.125 518.636,134.907 523.000,134.250" stroke-width="4.216" stroke="#000000" fill="none" stroke-linecap="round"></path><path d="M 523.000,134.250 C 529.974,133.003 529.825,132.625 537.000,132.250" stroke-width="3.343" stroke="#000000" fill="none" stroke-linecap="round"></path><circle r="1.5" cx="550" cy="128.25" fill="#000000"></circle><circle r="1.5" cx="552" cy="145.25" fill="#000000"></circle><path d="M 592.000,109.250 C 588.267,109.713 588.500,110.250 585.000,111.250" stroke-width="5.204" stroke="#000000" fill="none" stroke-linecap="round"></path><path d="M 585.000,111.250 C 579.842,114.022 579.767,113.713 575.000,117.250" stroke-width="3.666" stroke="#000000" fill="none" stroke-linecap="round"></path><path d="M 575.000,117.250 C 569.281,119.272 572.342,119.022 570.000,121.250" stroke-width="4.353" stroke="#000000" fill="none" stroke-linecap="round"></path><path d="M 570.000,121.250 C 575.030,124.280 571.281,124.772 579.000,128.250" stroke-width="4.608" stroke="#000000" fill="none" stroke-linecap="round"></path><path d="M 579.000,128.250 C 582.343,130.679 581.030,130.280 582.000,133.250" stroke-width="4.944" stroke="#000000" fill="none" stroke-linecap="round"></path><path d="M 582.000,133.250 C 580.486,139.183 581.343,138.179 577.000,143.250" stroke-width="4.400" stroke="#000000" fill="none" stroke-linecap="round"></path><path d="M 577.000,143.250 C 573.387,145.073 574.486,146.183 570.000,147.250" stroke-width="3.974" stroke="#000000" fill="none" stroke-linecap="round"></path><path d="M 628.000,105.250 C 624.979,105.002 625.000,105.250 622.000,105.250" stroke-width="4.972" stroke="#000000" fill="none" stroke-linecap="round"></path><path d="M 622.000,105.250 C 618.692,105.007 618.979,105.502 616.000,106.250" stroke-width="4.361" stroke="#000000" fill="none" stroke-linecap="round"></path><path d="M 616.000,106.250 C 612.153,108.384 612.192,108.007 609.000,111.250" stroke-width="3.844" stroke="#000000" fill="none" stroke-linecap="round"></path><path d="M 609.000,111.250 C 604.166,114.373 606.653,113.384 605.000,116.250" stroke-width="4.426" stroke="#000000" fill="none" stroke-linecap="round"></path><path d="M 605.000,116.250 C 608.899,118.493 606.166,118.873 613.000,120.250" stroke-width="4.426" stroke="#000000" fill="none" stroke-linecap="round"></path><path d="M 613.000,120.250 C 617.820,120.125 615.899,121.493 619.000,122.250" stroke-width="4.192" stroke="#000000" fill="none" stroke-linecap="round"></path><path d="M 619.000,122.250 C 619.665,126.290 620.320,124.625 618.000,129.250" stroke-width="4.831" stroke="#000000" fill="none" stroke-linecap="round"></path><path d="M 618.000,129.250 C 614.478,134.299 615.165,134.290 610.000,138.250" stroke-width="3.640" stroke="#000000" fill="none" stroke-linecap="round"></path><path d="M 610.000,138.250 C 605.355,141.056 605.978,141.799 601.000,144.250" stroke-width="3.437" stroke="#000000" fill="none" stroke-linecap="round"></path><path d="M 406.000,194.250 C 405.438,197.742 405.500,197.750 405.000,201.250" stroke-width="5.221" stroke="#000000" fill="none" stroke-linecap="round"></path><path d="M 405.000,201.250 C 404.885,205.823 404.438,205.742 404.000,210.250" stroke-width="4.029" stroke="#000000" fill="none" stroke-linecap="round"></path><path d="M 404.000,210.250 C 402.304,215.707 402.885,215.823 401.000,221.250" stroke-width="3.542" stroke="#000000" fill="none" stroke-linecap="round"></path><path d="M 435.000,189.250 C 431.541,190.171 432.000,190.750 429.000,192.250" stroke-width="5.133" stroke="#000000" fill="none" stroke-linecap="round"></path><path d="M 429.000,192.250 C 426.473,195.228 426.041,194.671 424.000,198.250" stroke-width="4.166" stroke="#000000" fill="none" stroke-linecap="round"></path><path d="M 424.000,198.250 C 419.411,200.893 421.973,200.728 420.000,203.250" stroke-width="4.533" stroke="#000000" fill="none" stroke-linecap="round"></path><path d="M 420.000,203.250 C 424.522,206.224 420.911,206.893 427.000,210.250" stroke-width="4.912" stroke="#000000" fill="none" stroke-linecap="round"></path><path d="M 427.000,210.250 C 428.994,213.666 428.522,212.724 428.000,216.250" stroke-width="5.085" stroke="#000000" fill="none" stroke-linecap="round"></path><path d="M 428.000,216.250 C 425.246,220.004 426.494,220.166 422.000,223.250" stroke-width="4.604" stroke="#000000" fill="none" stroke-linecap="round"></path><path d="M 422.000,223.250 C 419.767,225.741 419.746,225.504 417.000,227.250" stroke-width="4.177" stroke="#000000" fill="none" stroke-linecap="round"></path><path d="M 467.000,183.250 C 466.173,186.317 466.000,186.250 465.000,189.250" stroke-width="5.064" stroke="#000000" fill="none" stroke-linecap="round"></path><path d="M 465.000,189.250 C 463.341,193.927 463.173,193.817 461.000,198.250" stroke-width="3.842" stroke="#000000" fill="none" stroke-linecap="round"></path><path d="M 461.000,198.250 C 456.659,205.851 456.841,205.927 452.000,213.250" stroke-width="3.025" stroke="#000000" fill="none" stroke-linecap="round"></path><path d="M 452.000,213.250 C 447.887,219.177 448.159,219.351 444.000,225.250" stroke-width="3.038" stroke="#000000" fill="none" stroke-linecap="round"></path><path d="M 444.000,225.250 C 440.227,231.910 439.887,231.677 436.000,238.250" stroke-width="2.925" stroke="#000000" fill="none" stroke-linecap="round"></path><path d="M 479.000,198.250 C 478.735,201.308 478.500,201.250 478.000,204.250" stroke-width="5.279" stroke="#000000" fill="none" stroke-linecap="round"></path><path d="M 478.000,204.250 C 476.868,207.212 477.235,207.308 476.000,210.250" stroke-width="4.394" stroke="#000000" fill="none" stroke-linecap="round"></path><path d="M 476.000,210.250 C 474.894,214.226 474.868,214.212 474.000,218.250" stroke-width="3.893" stroke="#000000" fill="none" stroke-linecap="round"></path><path d="M 474.000,218.250 C 473.295,223.328 472.894,223.226 472.000,228.250" stroke-width="3.621" stroke="#000000" fill="none" stroke-linecap="round"></path><path d="M 502.000,200.250 C 497.686,204.879 498.500,205.250 495.000,210.250" stroke-width="4.971" stroke="#000000" fill="none" stroke-linecap="round"></path><path d="M 495.000,210.250 C 493.927,214.234 493.186,213.879 493.000,218.250" stroke-width="4.079" stroke="#000000" fill="none" stroke-linecap="round"></path><path d="M 493.000,218.250 C 490.692,221.755 492.427,220.734 492.000,223.250" stroke-width="4.208" stroke="#000000" fill="none" stroke-linecap="round"></path><path d="M 492.000,223.250 C 496.263,226.748 494.192,225.755 500.000,226.250" stroke-width="4.835" stroke="#000000" fill="none" stroke-linecap="round"></path><path d="M 500.000,226.250 C 503.994,224.256 503.763,225.748 507.000,221.250" stroke-width="4.607" stroke="#000000" fill="none" stroke-linecap="round"></path><path d="M 507.000,221.250 C 510.593,217.583 510.494,217.756 513.000,213.250" stroke-width="3.865" stroke="#000000" fill="none" stroke-linecap="round"></path><path d="M 513.000,213.250 C 517.630,207.030 515.593,208.583 517.000,203.250" stroke-width="3.560" stroke="#000000" fill="none" stroke-linecap="round"></path><path d="M 517.000,203.250 C 513.809,200.648 516.630,201.030 511.000,201.250" stroke-width="4.540" stroke="#000000" fill="none" stroke-linecap="round"></path><path d="M 511.000,201.250 C 506.960,203.688 506.809,202.148 503.000,206.250" stroke-width="3.852" stroke="#000000" fill="none" stroke-linecap="round"></path><path d="M 560.000,185.250 C 558.570,190.074 558.000,189.750 556.000,194.250" stroke-width="5.086" stroke="#000000" fill="none" stroke-linecap="round"></path><path d="M 556.000,194.250 C 550.143,202.854 550.570,203.074 544.000,211.250" stroke-width="2.978" stroke="#000000" fill="none" stroke-linecap="round"></path><path d="M 544.000,211.250 C 535.364,223.545 535.143,223.354 526.000,235.250" stroke-width="2.312" stroke="#000000" fill="none" stroke-linecap="round"></path><path d="M 526.000,235.250 C 519.147,243.388 519.364,243.545 512.000,251.250" stroke-width="2.440" stroke="#000000" fill="none" stroke-linecap="round"></path><path d="M 573.000,203.250 C 579.721,203.269 578.000,204.750 583.000,206.250" stroke-width="5.249" stroke="#000000" fill="none" stroke-linecap="round"></path><path d="M 583.000,206.250 C 585.245,210.226 585.221,208.269 584.000,213.250" stroke-width="5.082" stroke="#000000" fill="none" stroke-linecap="round"></path><path d="M 584.000,213.250 C 580.210,218.438 581.745,218.726 576.000,223.250" stroke-width="4.315" stroke="#000000" fill="none" stroke-linecap="round"></path><path d="M 576.000,223.250 C 573.124,226.386 573.210,226.438 570.000,229.250" stroke-width="3.905" stroke="#000000" fill="none" stroke-linecap="round"></path><path d="M 570.000,229.250 C 564.000,232.563 567.124,231.886 564.000,234.250" stroke-width="4.351" stroke="#000000" fill="none" stroke-linecap="round"></path><path d="M 564.000,234.250 C 566.974,235.061 564.000,235.563 570.000,235.250" stroke-width="4.938" stroke="#000000" fill="none" stroke-linecap="round"></path><path d="M 570.000,235.250 C 575.000,235.250 574.974,235.561 580.000,235.250" stroke-width="3.803" stroke="#000000" fill="none" stroke-linecap="round"></path><path d="M 580.000,235.250 C 585.534,235.592 585.500,235.250 591.000,235.250" stroke-width="3.523" stroke="#000000" fill="none" stroke-linecap="round"></path><path d="M 596.000,205.250 C 592.352,207.275 593.500,207.750 591.000,210.250" stroke-width="5.044" stroke="#000000" fill="none" stroke-linecap="round"></path><path d="M 591.000,210.250 C 591.000,213.250 589.852,212.775 591.000,216.250" stroke-width="4.389" stroke="#000000" fill="none" stroke-linecap="round"></path><path d="M 591.000,216.250 C 589.539,221.452 591.000,220.750 591.000,225.250" stroke-width="4.410" stroke="#000000" fill="none" stroke-linecap="round"></path><path d="M 591.000,225.250 C 593.383,227.418 592.039,227.952 596.000,229.250" stroke-width="4.178" stroke="#000000" fill="none" stroke-linecap="round"></path><path d="M 596.000,229.250 C 598.333,231.183 598.383,230.918 601.000,232.250" stroke-width="4.139" stroke="#000000" fill="none" stroke-linecap="round"></path><path d="M 601.000,232.250 C 603.667,233.717 603.333,233.183 606.000,233.250" stroke-width="4.269" stroke="#000000" fill="none" stroke-linecap="round"></path><path d="M 606.000,233.250 C 609.644,232.510 608.667,232.717 611.000,230.250" stroke-width="4.615" stroke="#000000" fill="none" stroke-linecap="round"></path><path d="M 611.000,230.250 C 611.533,226.754 612.644,227.510 612.000,223.250" stroke-width="4.146" stroke="#000000" fill="none" stroke-linecap="round"></path><path d="M 612.000,223.250 C 613.000,219.232 612.533,219.254 613.000,215.250" stroke-width="3.909" stroke="#000000" fill="none" stroke-linecap="round"></path><path d="M 613.000,215.250 C 613.257,212.345 613.000,212.732 612.000,210.250" stroke-width="4.193" stroke="#000000" fill="none" stroke-linecap="round"></path><path d="M 612.000,210.250 C 609.804,207.353 610.257,207.345 607.000,205.250" stroke-width="3.984" stroke="#000000" fill="none" stroke-linecap="round"></path><path d="M 607.000,205.250 C 603.643,202.931 603.804,202.853 600.000,201.250" stroke-width="3.865" stroke="#000000" fill="none" stroke-linecap="round"></path><path d="M 630.000,189.250 C 628.506,193.696 629.000,193.750 628.000,198.250" stroke-width="4.958" stroke="#000000" fill="none" stroke-linecap="round"></path><path d="M 628.000,198.250 C 628.204,202.758 627.506,202.696 628.000,207.250" stroke-width="3.922" stroke="#000000" fill="none" stroke-linecap="round"></path><path d="M 628.000,207.250 C 627.889,213.801 627.704,213.758 627.000,220.250" stroke-width="3.374" stroke="#000000" fill="none" stroke-linecap="round"></path><path d="M 627.000,220.250 C 625.537,228.257 625.889,228.301 624.000,236.250" stroke-width="3.007" stroke="#000000" fill="none" stroke-linecap="round"></path><path d="M 641.000,200.250 C 643.482,200.863 643.500,200.750 646.000,201.250" stroke-width="5.413" stroke="#000000" fill="none" stroke-linecap="round"></path><path d="M 646.000,201.250 C 652.101,199.718 649.982,201.863 654.000,202.250" stroke-width="4.186" stroke="#000000" fill="none" stroke-linecap="round"></path><path d="M 654.000,202.250 C 655.286,207.811 656.601,205.718 655.000,213.250" stroke-width="4.794" stroke="#000000" fill="none" stroke-linecap="round"></path><path d="M 655.000,213.250 C 654.062,217.267 654.786,217.311 653.000,221.250" stroke-width="3.981" stroke="#000000" fill="none" stroke-linecap="round"></path><path d="M 653.000,221.250 C 652.070,224.772 652.062,224.767 651.000,228.250" stroke-width="3.951" stroke="#000000" fill="none" stroke-linecap="round"></path><path d="M 651.000,228.250 C 650.301,231.388 650.070,231.272 649.000,234.250" stroke-width="4.007" stroke="#000000" fill="none" stroke-linecap="round"></path><path d="M 649.000,234.250 C 647.395,236.692 647.801,236.888 646.000,239.250" stroke-width="4.545" stroke="#000000" fill="none" stroke-linecap="round"></path><path d="M 638.000,224.250 C 642.976,219.401 643.500,220.750 649.000,217.250" stroke-width="4.726" stroke="#000000" fill="none" stroke-linecap="round"></path><path d="M 649.000,217.250 C 657.437,215.201 656.976,214.401 666.000,214.250" stroke-width="3.255" stroke="#000000" fill="none" stroke-linecap="round"></path></svg>